<mxfile host="app.diagrams.net" modified="2024-05-31T12:24:07.685Z" agent="Mozilla/5.0 (X11; Linux x86_64) AppleWebKit/537.36 (KHTML, like Gecko) Chrome/124.0.0.0 Safari/537.36" version="24.4.13" etag="J_U8wrh5WnbapeWQ_3WH" type="github">
  <diagram name="Page-1" id="MaRXYzhg_NESBB9eJHDp">
    <mxGraphModel>
      <root>
        <mxCell id="0" />
        <mxCell id="1" parent="0" />
      </root>
    </mxGraphModel>
  </diagram>
</mxfile>
